<svg xmlns="http://www.w3.org/2000/svg" viewBox="0 0 24 24"><path d="M2 6h3.828c-1.335 2.905-1.335 9.096 0 12h-3.828c-1.311-1.108-2-3.551-2-5.995 0-2.45.692-4.9 2-6.005zm22 6.005c.005 8.031-3.145 12.864-6.121 11.864-.774-.26-9.567-5.579-9.567-5.579-1.993-2.22-1.993-10.288 0-12.508 0 0 9.161-5.476 9.548-5.633 2.691-1.086 6.136 3.82 6.14 11.856zm-3.383-7.693c-1.053-2.264-3.002-2.226-4.034.002-.588 1.271-.993 3.165-1.21 4.797h.527c1.587 0 2.873 1.287 2.873 2.875s-1.286 2.875-2.873 2.875h-.515c.217 1.603.616 3.538 1.206 4.89.988 2.271 3.062 2.232 4.033-.002 1.946-4.477 1.772-11.609-.007-15.437z"></path></svg>