<svg xmlns="http://www.w3.org/2000/svg" viewBox="0 0 24 24" version="1.1"><g stroke="none" stroke-width="1" fill="none" fill-rule="evenodd"><path d="M1 18L1 21 4 21C4 19.3 2.7 18 1 18L1 18ZM1 14L1 16C3.8 16 6 18.2 6 21L8 21C8 17.1 4.9 14 1 14L1 14ZM1 10L1 12C6 12 10 16 10 21L12 21C12 14.9 7.1 10 1 10L1 10ZM21 3L3 3C1.9 3 1 3.9 1 5L1 8 3 8 3 5 21 5 21 19 14 19 14 21 21 21C22.1 21 23 20.1 23 19L23 5C23 3.9 22.1 3 21 3L21 3Z"></path><g transform="translate(-208.000000, -106.000000)"><g transform="translate(0.000000, 114.000000)"></g></g></g></svg>