<?xml version="1.0" encoding="UTF-8" standalone="no"?><!-- Generator: Gravit.io --><svg xmlns="http://www.w3.org/2000/svg" xmlns:xlink="http://www.w3.org/1999/xlink" style="isolation:isolate" viewBox="0 0 24 24" fill="currentColor"><defs><clipPath id="_clipPath_xLxPyBSQfqREoeREZ9VF1kUInutuQuHy"><rect width="24" height="24"/></clipPath></defs><g clip-path="url(#_clipPath_xLxPyBSQfqREoeREZ9VF1kUInutuQuHy)"><path d=" M 12.388 2.346 M 18.701 12.81 C 15.655 15.65 10.866 15.483 8.026 12.437 C 5.185 9.391 5.352 4.603 8.398 1.762 C 9.27 0.949 10.283 0.433 11.376 0 C 10.236 1.497 8.465 5.526 11.708 9.003 C 14.908 12.434 18.814 11.162 20.666 9.962 C 20.339 10.996 19.572 11.997 18.701 12.81 Z " /><path d=" M 6.6 23.888 L 5.853 21.78 L 2.863 21.78 L 2.116 23.888 L 1 23.888 L 3.8 16.079 L 4.916 16.079 L 7.716 23.888 L 6.6 23.888 Z  M 3.198 20.82 L 5.518 20.82 L 4.358 17.563 L 3.198 20.82 Z  M 11.822 18.422 L 12.826 18.422 L 12.826 23.888 L 11.933 23.888 L 11.822 23.286 L 11.822 23.286 Q 11.554 23.654 11.191 23.827 L 11.191 23.827 L 11.191 23.827 Q 10.829 24 10.304 24 L 10.304 24 L 10.304 24 Q 9.323 24 8.804 23.403 L 8.804 23.403 L 8.804 23.403 Q 8.285 22.806 8.285 21.601 L 8.285 21.601 L 8.285 18.422 L 9.289 18.422 L 9.289 21.323 L 9.289 21.323 Q 9.289 22.215 9.596 22.661 L 9.596 22.661 L 9.596 22.661 Q 9.903 23.108 10.561 23.108 L 10.561 23.108 L 10.561 23.108 Q 10.951 23.108 11.292 22.951 L 11.292 22.951 L 11.292 22.951 Q 11.632 22.795 11.822 22.494 L 11.822 22.494 L 11.822 18.422 Z  M 16.072 24 L 16.072 24 Q 15.347 24 14.995 23.621 L 14.995 23.621 L 14.995 23.621 Q 14.644 23.241 14.644 22.695 L 14.644 22.695 L 14.644 19.203 L 13.707 19.203 L 13.796 18.422 L 14.644 18.422 L 14.644 17.072 L 15.648 16.972 L 15.648 18.422 L 17.087 18.422 L 17.087 19.203 L 15.648 19.203 L 15.648 22.081 L 15.648 22.081 Q 15.648 22.65 15.715 22.862 L 15.715 22.862 L 15.715 22.862 Q 15.782 23.074 15.999 23.135 L 15.999 23.135 L 15.999 23.135 Q 16.217 23.197 16.797 23.197 L 16.797 23.197 L 17.054 23.197 L 16.976 24 L 16.072 24 Z  M 20.289 24 L 20.289 24 Q 19.452 24 18.839 23.626 L 18.839 23.626 L 18.839 23.626 Q 18.225 23.253 17.902 22.605 L 17.902 22.605 L 17.902 22.605 Q 17.578 21.958 17.578 21.155 L 17.578 21.155 L 17.578 21.155 Q 17.578 20.352 17.902 19.705 L 17.902 19.705 L 17.902 19.705 Q 18.225 19.058 18.839 18.684 L 18.839 18.684 L 18.839 18.684 Q 19.452 18.31 20.289 18.31 L 20.289 18.31 L 20.289 18.31 Q 21.115 18.31 21.734 18.684 L 21.734 18.684 L 21.734 18.684 Q 22.353 19.058 22.676 19.705 L 22.676 19.705 L 22.676 19.705 Q 23 20.352 23 21.155 L 23 21.155 L 23 21.155 Q 23 21.958 22.676 22.605 L 22.676 22.605 L 22.676 22.605 Q 22.353 23.253 21.734 23.626 L 21.734 23.626 L 21.734 23.626 Q 21.115 24 20.289 24 L 20.289 24 Z  M 20.289 23.108 L 20.289 23.108 Q 21.092 23.108 21.533 22.594 L 21.533 22.594 L 21.533 22.594 Q 21.974 22.081 21.974 21.155 L 21.974 21.155 L 21.974 21.155 Q 21.974 20.229 21.533 19.716 L 21.533 19.716 L 21.533 19.716 Q 21.092 19.203 20.289 19.203 L 20.289 19.203 L 20.289 19.203 Q 19.486 19.203 19.045 19.716 L 19.045 19.716 L 19.045 19.716 Q 18.604 20.229 18.604 21.155 L 18.604 21.155 L 18.604 21.155 Q 18.604 22.081 19.045 22.594 L 19.045 22.594 L 19.045 22.594 Q 19.486 23.108 20.289 23.108 L 20.289 23.108 Z "/></g></svg>