<?xml version="1.0"?>
<svg xmlns="http://www.w3.org/2000/svg" xmlns:xlink="http://www.w3.org/1999/xlink" version="1.1" id="Capa_1" x="0px" y="0px" viewBox="0 0 458.191 458.191" style="enable-background:new 0 0 458.191 458.191;" xml:space="preserve" width="512px" height="512px"><g><g>
	<g>
		<path d="M417.654,78.217c-34.616-42.619-86.696-67.235-141.601-66.929h-94.72C81.186,11.289,0,92.474,0,192.622    s81.186,181.333,181.333,181.333h64v64c-0.006,3.686,2.054,7.064,5.333,8.747c1.338,0.27,2.716,0.27,4.053,0    c2.377-0.032,4.657-0.944,6.4-2.56l130.133-111.147C468.899,269.931,480.719,155.863,417.654,78.217z M238.507,251.075h-80.213    v-18.987h80.213V251.075z M299.307,200.729H158.293v-18.347h141.013V200.729z M299.307,150.382H158.293v-18.347h141.013V150.382z" data-original="#000000" class="active-path" data-old_color="#000000" fill="#4F4F51"/>
	</g>
</g></g> </svg>
