<?xml version="1.0"?>
<svg xmlns="http://www.w3.org/2000/svg" xmlns:xlink="http://www.w3.org/1999/xlink" version="1.1" id="Capa_1" x="0px" y="0px" viewBox="0 0 480 480" style="enable-background:new 0 0 480 480;" xml:space="preserve" width="512px" height="512px"><g><path d="M363.324,228.672l-224-224c-4.608-4.576-11.424-5.92-17.44-3.456  C115.9,3.68,111.996,9.536,111.996,16v118.08c0,4.384,1.824,8.608,4.992,11.616L216.7,240l-99.712,94.272  c-3.168,3.04-4.992,7.232-4.992,11.648V464c0,6.464,3.904,12.32,9.888,14.784c1.984,0.8,4.064,1.216,6.112,1.216  c4.16,0,8.256-1.632,11.328-4.672l224-224C369.564,245.056,369.564,234.944,363.324,228.672z" data-original="#2196F3" class="active-path" data-old_color="#2196F3" fill="#fff"/></g> </svg>
