<svg xmlns="http://www.w3.org/2000/svg" width="24" height="24" viewBox="0 0 24 24"><path d="M17 2.534c1.399 0 2.797.533 3.865 1.601s1.6 2.466 1.6 3.865h1.535c0-1.791-.684-3.583-2.05-4.95-1.368-1.367-3.158-2.05-4.95-2.05v1.534zm0 1.29c1.069 0 2.138.407 2.953 1.223s1.223 1.884 1.223 2.953h-1.62c0-.654-.25-1.309-.749-1.808-.5-.499-1.153-.749-1.808-.749v-1.619zm.708 4.883c-.391.39-1.023.39-1.414 0-.39-.391-.391-1.023 0-1.414s1.023-.391 1.414 0c.39.391.39 1.023 0 1.414zm4.292 1.293v9h-22v-16h15v2h-13v12h18v-7h2zm-6 11c-1 1.194-2.862 2-5 2s-4-.806-5-2h10z"/></svg>